<?xml version="1.0" encoding="UTF-8"?>
<svg xmlns="http://www.w3.org/2000/svg" xmlns:xlink="http://www.w3.org/1999/xlink" width="612pt" height="792pt" viewBox="0 0 612 792" version="1.1">
<defs>
<clipPath id="clip1">
  <path d="M 499.8125 0 L 612 0 L 612 282.78125 L 499.8125 282.78125 Z M 499.8125 0 "/>
</clipPath>
<clipPath id="clip2">
  <rect x="0" y="0" width="81" height="81"/>
</clipPath>
<g id="surface5" clip-path="url(#clip2)">
<rect x="0" y="0" width="81" height="81" style="fill:rgb(100%,100%,100%);fill-opacity:1;stroke:none;"/>
<path style=" stroke:none;fill-rule:nonzero;fill:rgb(13.729858%,12.159729%,12.548828%);fill-opacity:1;" d="M 0 -12.152344 C 6.707031 -12.152344 12.148438 -6.710938 12.148438 0 C 12.148438 6.710938 6.707031 12.152344 0 12.152344 C -6.714844 12.152344 -12.152344 6.710938 -12.152344 0 C -12.152344 -6.710938 -6.714844 -12.152344 0 -12.152344 "/>
<path style=" stroke:none;fill-rule:nonzero;fill:rgb(13.729858%,12.159729%,12.548828%);fill-opacity:1;" d="M 40.5 -12.152344 C 47.207031 -12.152344 52.648438 -6.710938 52.648438 0 C 52.648438 6.710938 47.207031 12.152344 40.5 12.152344 C 33.785156 12.152344 28.347656 6.710938 28.347656 0 C 28.347656 -6.710938 33.785156 -12.152344 40.5 -12.152344 "/>
<path style=" stroke:none;fill-rule:nonzero;fill:rgb(13.729858%,12.159729%,12.548828%);fill-opacity:1;" d="M 81 -12.152344 C 87.707031 -12.152344 93.148438 -6.710938 93.148438 0 C 93.148438 6.710938 87.707031 12.152344 81 12.152344 C 74.285156 12.152344 68.847656 6.710938 68.847656 0 C 68.847656 -6.710938 74.285156 -12.152344 81 -12.152344 "/>
<path style=" stroke:none;fill-rule:nonzero;fill:rgb(13.729858%,12.159729%,12.548828%);fill-opacity:1;" d="M 0 28.347656 C 6.707031 28.347656 12.148438 33.789062 12.148438 40.5 C 12.148438 47.210938 6.707031 52.652344 0 52.652344 C -6.714844 52.652344 -12.152344 47.210938 -12.152344 40.5 C -12.152344 33.789062 -6.714844 28.347656 0 28.347656 "/>
<path style=" stroke:none;fill-rule:nonzero;fill:rgb(13.729858%,12.159729%,12.548828%);fill-opacity:1;" d="M 40.5 28.347656 C 47.207031 28.347656 52.648438 33.789062 52.648438 40.5 C 52.648438 47.210938 47.207031 52.652344 40.5 52.652344 C 33.785156 52.652344 28.347656 47.210938 28.347656 40.5 C 28.347656 33.789062 33.785156 28.347656 40.5 28.347656 "/>
<path style=" stroke:none;fill-rule:nonzero;fill:rgb(13.729858%,12.159729%,12.548828%);fill-opacity:1;" d="M 81 28.347656 C 87.707031 28.347656 93.148438 33.789062 93.148438 40.5 C 93.148438 47.210938 87.707031 52.652344 81 52.652344 C 74.285156 52.652344 68.847656 47.210938 68.847656 40.5 C 68.847656 33.789062 74.285156 28.347656 81 28.347656 "/>
<path style=" stroke:none;fill-rule:nonzero;fill:rgb(13.729858%,12.159729%,12.548828%);fill-opacity:1;" d="M 0 68.847656 C 6.707031 68.847656 12.148438 74.289062 12.148438 81 C 12.148438 87.710938 6.707031 93.152344 0 93.152344 C -6.714844 93.152344 -12.152344 87.710938 -12.152344 81 C -12.152344 74.289062 -6.714844 68.847656 0 68.847656 "/>
<path style=" stroke:none;fill-rule:nonzero;fill:rgb(13.729858%,12.159729%,12.548828%);fill-opacity:1;" d="M 40.5 68.847656 C 47.207031 68.847656 52.648438 74.289062 52.648438 81 C 52.648438 87.710938 47.207031 93.152344 40.5 93.152344 C 33.785156 93.152344 28.347656 87.710938 28.347656 81 C 28.347656 74.289062 33.785156 68.847656 40.5 68.847656 "/>
<path style=" stroke:none;fill-rule:nonzero;fill:rgb(13.729858%,12.159729%,12.548828%);fill-opacity:1;" d="M 81 68.847656 C 87.707031 68.847656 93.148438 74.289062 93.148438 81 C 93.148438 87.710938 87.707031 93.152344 81 93.152344 C 74.285156 93.152344 68.847656 87.710938 68.847656 81 C 68.847656 74.289062 74.285156 68.847656 81 68.847656 "/>
<path style=" stroke:none;fill-rule:nonzero;fill:rgb(13.729858%,12.159729%,12.548828%);fill-opacity:1;" d="M 60.75 8.097656 C 67.457031 8.097656 72.898438 13.539062 72.898438 20.25 C 72.898438 26.960938 67.457031 32.402344 60.75 32.402344 C 54.035156 32.402344 48.597656 26.960938 48.597656 20.25 C 48.597656 13.539062 54.035156 8.097656 60.75 8.097656 "/>
<path style=" stroke:none;fill-rule:nonzero;fill:rgb(13.729858%,12.159729%,12.548828%);fill-opacity:1;" d="M 20.25 8.097656 C 26.957031 8.097656 32.398438 13.539062 32.398438 20.25 C 32.398438 26.960938 26.957031 32.402344 20.25 32.402344 C 13.535156 32.402344 8.097656 26.960938 8.097656 20.25 C 8.097656 13.539062 13.535156 8.097656 20.25 8.097656 "/>
<path style=" stroke:none;fill-rule:nonzero;fill:rgb(13.729858%,12.159729%,12.548828%);fill-opacity:1;" d="M 60.75 48.597656 C 67.457031 48.597656 72.898438 54.039062 72.898438 60.75 C 72.898438 67.460938 67.457031 72.902344 60.75 72.902344 C 54.035156 72.902344 48.597656 67.460938 48.597656 60.75 C 48.597656 54.039062 54.035156 48.597656 60.75 48.597656 "/>
<path style=" stroke:none;fill-rule:nonzero;fill:rgb(13.729858%,12.159729%,12.548828%);fill-opacity:1;" d="M 20.25 48.597656 C 26.957031 48.597656 32.398438 54.039062 32.398438 60.75 C 32.398438 67.460938 26.957031 72.902344 20.25 72.902344 C 13.535156 72.902344 8.097656 67.460938 8.097656 60.75 C 8.097656 54.039062 13.535156 48.597656 20.25 48.597656 "/>
</g>
<pattern id="pattern0" patternUnits="userSpaceOnUse" width="81" height="81" patternTransform="matrix(0,0.989227,0.989262,0,-69.3,851.3727)">
<use xlink:href="#surface5"/>
</pattern>
<clipPath id="clip3">
  <path d="M 0.835938 317.964844 L 474.042969 317.964844 L 474.042969 791.160156 L 0.835938 791.160156 Z M 0.835938 317.964844 "/>
</clipPath>
<clipPath id="clip4">
  <rect x="0" y="0" width="46" height="46"/>
</clipPath>
<g id="surface8" clip-path="url(#clip4)">
<rect x="0" y="0" width="46" height="46" style="fill:rgb(100%,100%,100%);fill-opacity:1;stroke:none;"/>
<path style=" stroke:none;fill-rule:nonzero;fill:rgb(13.729858%,12.159729%,12.548828%);fill-opacity:1;" d="M 37.707031 23 C 37.707031 14.875 31.128906 8.285156 23.003906 8.285156 C 14.882812 8.285156 8.292969 14.875 8.292969 23 C 8.292969 31.128906 14.882812 37.710938 23.003906 37.710938 C 31.128906 37.710938 37.707031 31.128906 37.707031 23 "/>
</g>
<pattern id="pattern1" patternUnits="userSpaceOnUse" width="46" height="46" patternTransform="matrix(0,0.988074,0.98811,0,-36.4,827.4484)">
<use xlink:href="#surface8"/>
</pattern>
<clipPath id="clip5">
  <path d="M 499.8125 317.96875 L 612 317.96875 L 612 791.164062 L 499.8125 791.164062 Z M 499.8125 317.96875 "/>
</clipPath>
<clipPath id="clip6">
  <rect x="0" y="0" width="169" height="169"/>
</clipPath>
<g id="surface11" clip-path="url(#clip6)">
<rect x="0" y="0" width="169" height="169" style="fill:rgb(100%,100%,100%);fill-opacity:1;stroke:none;"/>
<path style=" stroke:none;fill-rule:nonzero;fill:rgb(13.729858%,12.159729%,12.548828%);fill-opacity:1;" d="M 90.824219 168.996094 C 90.824219 165.5 87.992188 162.667969 84.5 162.667969 C 81.007812 162.667969 78.175781 165.5 78.175781 168.996094 C 78.175781 172.488281 81.007812 175.320312 84.5 175.320312 C 87.992188 175.320312 90.824219 172.488281 90.824219 168.996094 "/>
<path style=" stroke:none;fill-rule:nonzero;fill:rgb(13.729858%,12.159729%,12.548828%);fill-opacity:1;" d="M 90.824219 0.0078125 C 90.824219 -3.484375 87.992188 -6.316406 84.5 -6.316406 C 81.007812 -6.316406 78.175781 -3.484375 78.175781 0.0078125 C 78.175781 3.503906 81.007812 6.332031 84.5 6.332031 C 87.992188 6.332031 90.824219 3.503906 90.824219 0.0078125 "/>
<path style=" stroke:none;fill-rule:nonzero;fill:rgb(13.729858%,12.159729%,12.548828%);fill-opacity:1;" d="M 168.996094 78.175781 C 165.5 78.175781 162.667969 81.007812 162.667969 84.5 C 162.667969 87.992188 165.5 90.824219 168.996094 90.824219 C 172.488281 90.824219 175.320312 87.992188 175.320312 84.5 C 175.320312 81.007812 172.488281 78.175781 168.996094 78.175781 "/>
<path style=" stroke:none;fill-rule:nonzero;fill:rgb(13.729858%,12.159729%,12.548828%);fill-opacity:1;" d="M 0.0078125 78.175781 C -3.484375 78.175781 -6.320312 81.007812 -6.320312 84.5 C -6.320312 87.992188 -3.484375 90.824219 0.0078125 90.824219 C 3.5 90.824219 6.332031 87.992188 6.332031 84.5 C 6.332031 81.007812 3.5 78.175781 0.0078125 78.175781 "/>
</g>
<pattern id="pattern2" patternUnits="userSpaceOnUse" width="169" height="169" patternTransform="matrix(0,0.996989,0.997035,0,-42.8,843.909)">
<use xlink:href="#surface11"/>
</pattern>
<clipPath id="clip7">
  <path d="M 6.765625 0 L 468.113281 0 L 468.113281 282.769531 L 6.765625 282.769531 Z M 6.765625 0 "/>
</clipPath>
<clipPath id="clip8">
  <rect x="0" y="0" width="18" height="17"/>
</clipPath>
<g id="surface14" clip-path="url(#clip8)">
<path style=" stroke:none;fill-rule:nonzero;fill:rgb(73.945618%,73.471069%,73.588562%);fill-opacity:1;" d="M 14.484375 8.5 C 14.484375 11.359375 12.03125 13.679688 9 13.679688 C 5.972656 13.679688 3.519531 11.359375 3.519531 8.5 C 3.519531 5.640625 5.972656 3.320312 9 3.320312 C 12.03125 3.320312 14.484375 5.640625 14.484375 8.5 Z M 18 11.824219 L 18 5.179688 C 14.972656 5.179688 12.519531 2.859375 12.519531 0 L 5.484375 0 C 5.484375 2.859375 3.03125 5.179688 0 5.179688 L 0 11.824219 C 3.03125 11.824219 5.484375 14.140625 5.484375 17 L 12.519531 17 C 12.519531 14.140625 14.972656 11.824219 18 11.824219 "/>
<path style="fill:none;stroke-width:0.42519;stroke-linecap:butt;stroke-linejoin:miter;stroke:rgb(100%,100%,100%);stroke-opacity:1;stroke-miterlimit:4;" d="M 82.544124 51.8165 C 82.544124 34.838024 68.760537 21.074266 51.8065 21.074266 C 34.829978 21.074266 21.046391 34.838024 21.046391 51.8165 C 21.046391 68.794976 34.829978 82.558734 51.8065 82.558734 C 68.760537 82.558734 82.544124 68.794976 82.544124 51.8165 Z M 82.544124 51.8165 " transform="matrix(0.173723,0,0,0.16404,0,0)"/>
<path style="fill:none;stroke-width:0.42519;stroke-linecap:butt;stroke-linejoin:miter;stroke:rgb(100%,100%,100%);stroke-opacity:1;stroke-miterlimit:4;" d="M 103.613 72.890766 C 86.636478 72.890766 72.875376 86.654524 72.875376 103.633 " transform="matrix(0.173723,0,0,0.16404,0,0)"/>
<path style="fill:none;stroke-width:0.42519;stroke-linecap:butt;stroke-linejoin:miter;stroke:rgb(100%,100%,100%);stroke-opacity:1;stroke-miterlimit:4;" d="M -0.0674564 72.890766 C 16.886581 72.890766 30.670168 86.654524 30.670168 103.633 " transform="matrix(0.173723,0,0,0.16404,0,0)"/>
<path style="fill:none;stroke-width:0.42519;stroke-linecap:butt;stroke-linejoin:miter;stroke:rgb(100%,100%,100%);stroke-opacity:1;stroke-miterlimit:4;" d="M 103.613 30.908923 C 86.636478 30.908923 72.875376 17.145165 72.875376 0.166689 " transform="matrix(0.173723,0,0,0.16404,0,0)"/>
<path style="fill:none;stroke-width:0.42519;stroke-linecap:butt;stroke-linejoin:miter;stroke:rgb(100%,100%,100%);stroke-opacity:1;stroke-miterlimit:4;" d="M -0.0674564 30.908923 C 16.886581 30.908923 30.670168 17.145165 30.670168 0.166689 " transform="matrix(0.173723,0,0,0.16404,0,0)"/>
</g>
<pattern id="pattern3" patternUnits="userSpaceOnUse" width="18" height="17" patternTransform="matrix(0,0.960907,0.992152,0,-1.8,793.60352)">
<use xlink:href="#surface14"/>
</pattern>
</defs>
<g id="surface1">
<g clip-path="url(#clip1)" clip-rule="nonzero">
<path style=" stroke:none;fill-rule:nonzero;fill:url(#pattern0);" d="M 499.8125 282.78125 L 612 282.78125 L 612 0 L 499.8125 0 Z M 499.8125 282.78125 "/>
</g>
<path style="fill:none;stroke-width:16.6935;stroke-linecap:butt;stroke-linejoin:miter;stroke:rgb(13.729858%,12.159729%,12.548828%);stroke-opacity:1;stroke-miterlimit:4;" d="M 4998.125 5092.1875 L 4998.125 9824.140625 L 9730.234375 9824.140625 L 9730.234375 5092.1875 Z M 4998.125 5092.1875 " transform="matrix(0.1,0,0,-0.1,0,792)"/>
<g clip-path="url(#clip3)" clip-rule="nonzero">
<path style=" stroke:none;fill-rule:nonzero;fill:url(#pattern1);" d="M 0.835938 791.160156 L 474.046875 791.160156 L 474.046875 317.964844 L 0.835938 317.964844 Z M 0.835938 791.160156 "/>
</g>
<path style="fill:none;stroke-width:16.6935;stroke-linecap:butt;stroke-linejoin:miter;stroke:rgb(13.729858%,12.159729%,12.548828%);stroke-opacity:1;stroke-miterlimit:4;" d="M 8.359375 8.398438 L 8.359375 4740.351562 L 4740.429688 4740.351562 L 4740.429688 8.398438 Z M 8.359375 8.398438 " transform="matrix(0.1,0,0,-0.1,0,792)"/>
<g clip-path="url(#clip5)" clip-rule="nonzero">
<path style=" stroke:none;fill-rule:nonzero;fill:url(#pattern2);" d="M 499.8125 791.164062 L 612 791.164062 L 612 317.96875 L 499.8125 317.96875 Z M 499.8125 791.164062 "/>
</g>
<path style="fill:none;stroke-width:16.6935;stroke-linecap:butt;stroke-linejoin:miter;stroke:rgb(13.729858%,12.159729%,12.548828%);stroke-opacity:1;stroke-miterlimit:4;" d="M 4998.125 8.359375 L 4998.125 4740.3125 L 9730.234375 4740.3125 L 9730.234375 8.359375 Z M 4998.125 8.359375 " transform="matrix(0.1,0,0,-0.1,0,792)"/>
<g clip-path="url(#clip7)" clip-rule="nonzero">
<path style=" stroke:none;fill-rule:nonzero;fill:url(#pattern3);" d="M 6.765625 282.769531 L 468.113281 282.769531 L 468.113281 0 L 6.765625 0 Z M 6.765625 282.769531 "/>
</g>
<path style="fill:none;stroke-width:16.4829;stroke-linecap:butt;stroke-linejoin:miter;stroke:rgb(13.729858%,12.159729%,12.548828%);stroke-opacity:1;stroke-miterlimit:4;" d="M 67.65625 5092.304688 L 67.65625 9824.257812 L 4681.132812 9824.257812 L 4681.132812 5092.304688 Z M 67.65625 5092.304688 " transform="matrix(0.1,0,0,-0.1,0,792)"/>
</g>
</svg>
